<svg width="316" height="125" viewBox="0 0 316 125" fill="none" xmlns="http://www.w3.org/2000/svg">
<path d="M33.875 30.806H11.366V24.95H63.155V30.806H40.646V89H33.875V30.806Z" fill="#EF4B4C"/>
<path d="M55.8592 76.1254H18.5806L10.5513 94H3.19117L33.7788 27.0896H40.7566L71.3441 94H63.8884L55.8592 76.1254ZM53.2783 70.3902L37.2199 34.4498L21.1614 70.3902H53.2783Z" fill="#EF4B4C"/>
<path d="M33.875 94.194H11.366V100.05H63.155V94.194H40.646V36H33.875V94.194Z" fill="#EF4B4C"/>
<path d="M38.016 25.424C29.312 25.424 22.528 27.92 17.664 32.912C12.8 37.904 10.368 45.168 10.368 54.704V93.2H17.472V54.992C17.472 47.184 19.232 41.36 22.752 37.52C26.272 33.68 31.36 31.76 38.016 31.76C44.736 31.76 49.856 33.68 53.376 37.52C56.896 41.36 58.656 47.184 58.656 54.992V93.2H65.568V54.704C65.568 45.168 63.136 37.904 58.272 32.912C53.472 27.92 46.72 25.424 38.016 25.424Z" fill="#EF4B4C"/>
<path d="M101 62.104H92.144V59.8H112.52V62.104H103.664V85H101V62.104ZM121.805 65.92C124.277 65.92 126.173 66.544 127.493 67.792C128.813 69.016 129.473 70.84 129.473 73.264V85H127.025V82.048C126.449 83.032 125.597 83.8 124.469 84.352C123.365 84.904 122.045 85.18 120.509 85.18C118.397 85.18 116.717 84.676 115.469 83.668C114.221 82.66 113.597 81.328 113.597 79.672C113.597 78.064 114.173 76.768 115.325 75.784C116.501 74.8 118.361 74.308 120.905 74.308H126.917V73.156C126.917 71.524 126.461 70.288 125.549 69.448C124.637 68.584 123.305 68.152 121.553 68.152C120.353 68.152 119.201 68.356 118.097 68.764C116.993 69.148 116.045 69.688 115.253 70.384L114.101 68.476C115.061 67.66 116.213 67.036 117.557 66.604C118.901 66.148 120.317 65.92 121.805 65.92ZM120.905 83.164C122.345 83.164 123.581 82.84 124.613 82.192C125.645 81.52 126.413 80.56 126.917 79.312V76.216H120.977C117.737 76.216 116.117 77.344 116.117 79.6C116.117 80.704 116.537 81.58 117.377 82.228C118.217 82.852 119.393 83.164 120.905 83.164ZM146.388 83.848C145.908 84.28 145.308 84.616 144.588 84.856C143.892 85.072 143.16 85.18 142.392 85.18C140.616 85.18 139.248 84.7 138.288 83.74C137.328 82.78 136.848 81.424 136.848 79.672V68.224H133.464V66.064H136.848V61.924H139.404V66.064H145.164V68.224H139.404V79.528C139.404 80.656 139.68 81.52 140.232 82.12C140.808 82.696 141.624 82.984 142.68 82.984C143.208 82.984 143.712 82.9 144.192 82.732C144.696 82.564 145.128 82.324 145.488 82.012L146.388 83.848ZM160.52 83.848C160.04 84.28 159.44 84.616 158.72 84.856C158.024 85.072 157.292 85.18 156.524 85.18C154.748 85.18 153.38 84.7 152.42 83.74C151.46 82.78 150.98 81.424 150.98 79.672V68.224H147.596V66.064H150.98V61.924H153.536V66.064H159.296V68.224H153.536V79.528C153.536 80.656 153.812 81.52 154.364 82.12C154.94 82.696 155.756 82.984 156.812 82.984C157.34 82.984 157.844 82.9 158.324 82.732C158.828 82.564 159.26 82.324 159.62 82.012L160.52 83.848ZM172.245 85.18C170.421 85.18 168.777 84.772 167.313 83.956C165.849 83.116 164.697 81.964 163.857 80.5C163.017 79.036 162.597 77.38 162.597 75.532C162.597 73.684 163.017 72.028 163.857 70.564C164.697 69.1 165.849 67.96 167.313 67.144C168.777 66.328 170.421 65.92 172.245 65.92C174.069 65.92 175.713 66.328 177.177 67.144C178.641 67.96 179.781 69.1 180.597 70.564C181.437 72.028 181.857 73.684 181.857 75.532C181.857 77.38 181.437 79.036 180.597 80.5C179.781 81.964 178.641 83.116 177.177 83.956C175.713 84.772 174.069 85.18 172.245 85.18ZM172.245 82.912C173.589 82.912 174.789 82.612 175.845 82.012C176.925 81.388 177.765 80.512 178.365 79.384C178.965 78.256 179.265 76.972 179.265 75.532C179.265 74.092 178.965 72.808 178.365 71.68C177.765 70.552 176.925 69.688 175.845 69.088C174.789 68.464 173.589 68.152 172.245 68.152C170.901 68.152 169.689 68.464 168.609 69.088C167.553 69.688 166.713 70.552 166.089 71.68C165.489 72.808 165.189 74.092 165.189 75.532C165.189 76.972 165.489 78.256 166.089 79.384C166.713 80.512 167.553 81.388 168.609 82.012C169.689 82.612 170.901 82.912 172.245 82.912ZM194.816 85.18C192.992 85.18 191.348 84.772 189.884 83.956C188.42 83.116 187.268 81.964 186.428 80.5C185.588 79.036 185.168 77.38 185.168 75.532C185.168 73.684 185.588 72.028 186.428 70.564C187.268 69.1 188.42 67.96 189.884 67.144C191.348 66.328 192.992 65.92 194.816 65.92C196.64 65.92 198.284 66.328 199.748 67.144C201.212 67.96 202.352 69.1 203.168 70.564C204.008 72.028 204.428 73.684 204.428 75.532C204.428 77.38 204.008 79.036 203.168 80.5C202.352 81.964 201.212 83.116 199.748 83.956C198.284 84.772 196.64 85.18 194.816 85.18ZM194.816 82.912C196.16 82.912 197.36 82.612 198.416 82.012C199.496 81.388 200.336 80.512 200.936 79.384C201.536 78.256 201.836 76.972 201.836 75.532C201.836 74.092 201.536 72.808 200.936 71.68C200.336 70.552 199.496 69.688 198.416 69.088C197.36 68.464 196.16 68.152 194.816 68.152C193.472 68.152 192.26 68.464 191.18 69.088C190.124 69.688 189.284 70.552 188.66 71.68C188.06 72.808 187.76 74.092 187.76 75.532C187.76 76.972 188.06 78.256 188.66 79.384C189.284 80.512 190.124 81.388 191.18 82.012C192.26 82.612 193.472 82.912 194.816 82.912ZM226.556 85.216C224.684 85.216 222.884 84.916 221.156 84.316C219.452 83.716 218.132 82.924 217.196 81.94L218.24 79.888C219.152 80.8 220.364 81.544 221.876 82.12C223.388 82.672 224.948 82.948 226.556 82.948C228.812 82.948 230.504 82.54 231.632 81.724C232.76 80.884 233.324 79.804 233.324 78.484C233.324 77.476 233.012 76.672 232.388 76.072C231.788 75.472 231.044 75.016 230.156 74.704C229.268 74.368 228.032 74.008 226.448 73.624C224.552 73.144 223.04 72.688 221.912 72.256C220.784 71.8 219.812 71.116 218.996 70.204C218.204 69.292 217.808 68.056 217.808 66.496C217.808 65.224 218.144 64.072 218.816 63.04C219.488 61.984 220.52 61.144 221.912 60.52C223.304 59.896 225.032 59.584 227.096 59.584C228.536 59.584 229.94 59.788 231.308 60.196C232.7 60.58 233.9 61.12 234.908 61.816L234.008 63.94C232.952 63.244 231.824 62.728 230.624 62.392C229.424 62.032 228.248 61.852 227.096 61.852C224.888 61.852 223.22 62.284 222.092 63.148C220.988 63.988 220.436 65.08 220.436 66.424C220.436 67.432 220.736 68.248 221.336 68.872C221.96 69.472 222.728 69.94 223.64 70.276C224.576 70.588 225.824 70.936 227.384 71.32C229.232 71.776 230.72 72.232 231.848 72.688C233 73.12 233.972 73.792 234.764 74.704C235.556 75.592 235.952 76.804 235.952 78.34C235.952 79.612 235.604 80.776 234.908 81.832C234.236 82.864 233.192 83.692 231.776 84.316C230.36 84.916 228.62 85.216 226.556 85.216ZM247.84 65.92C250.312 65.92 252.208 66.544 253.528 67.792C254.848 69.016 255.508 70.84 255.508 73.264V85H253.06V82.048C252.484 83.032 251.632 83.8 250.504 84.352C249.4 84.904 248.08 85.18 246.544 85.18C244.432 85.18 242.752 84.676 241.504 83.668C240.256 82.66 239.632 81.328 239.632 79.672C239.632 78.064 240.208 76.768 241.36 75.784C242.536 74.8 244.396 74.308 246.94 74.308H252.952V73.156C252.952 71.524 252.496 70.288 251.584 69.448C250.672 68.584 249.34 68.152 247.588 68.152C246.388 68.152 245.236 68.356 244.132 68.764C243.028 69.148 242.08 69.688 241.288 70.384L240.136 68.476C241.096 67.66 242.248 67.036 243.592 66.604C244.936 66.148 246.352 65.92 247.84 65.92ZM246.94 83.164C248.38 83.164 249.616 82.84 250.648 82.192C251.68 81.52 252.448 80.56 252.952 79.312V76.216H247.012C243.772 76.216 242.152 77.344 242.152 79.6C242.152 80.704 242.572 81.58 243.412 82.228C244.252 82.852 245.428 83.164 246.94 83.164ZM262.451 58.288H265.007V85H262.451V58.288ZM279.859 85.18C278.035 85.18 276.391 84.772 274.927 83.956C273.463 83.116 272.311 81.964 271.471 80.5C270.631 79.036 270.211 77.38 270.211 75.532C270.211 73.684 270.631 72.028 271.471 70.564C272.311 69.1 273.463 67.96 274.927 67.144C276.391 66.328 278.035 65.92 279.859 65.92C281.683 65.92 283.327 66.328 284.791 67.144C286.255 67.96 287.395 69.1 288.211 70.564C289.051 72.028 289.471 73.684 289.471 75.532C289.471 77.38 289.051 79.036 288.211 80.5C287.395 81.964 286.255 83.116 284.791 83.956C283.327 84.772 281.683 85.18 279.859 85.18ZM279.859 82.912C281.203 82.912 282.403 82.612 283.459 82.012C284.539 81.388 285.379 80.512 285.979 79.384C286.579 78.256 286.879 76.972 286.879 75.532C286.879 74.092 286.579 72.808 285.979 71.68C285.379 70.552 284.539 69.688 283.459 69.088C282.403 68.464 281.203 68.152 279.859 68.152C278.515 68.152 277.303 68.464 276.223 69.088C275.167 69.688 274.327 70.552 273.703 71.68C273.103 72.808 272.803 74.092 272.803 75.532C272.803 76.972 273.103 78.256 273.703 79.384C274.327 80.512 275.167 81.388 276.223 82.012C277.303 82.612 278.515 82.912 279.859 82.912ZM304.337 65.92C306.713 65.92 308.597 66.616 309.989 68.008C311.405 69.376 312.113 71.38 312.113 74.02V85H309.557V74.272C309.557 72.304 309.065 70.804 308.081 69.772C307.097 68.74 305.693 68.224 303.869 68.224C301.829 68.224 300.209 68.836 299.009 70.06C297.833 71.26 297.245 72.928 297.245 75.064V85H294.689V66.064H297.137V69.556C297.833 68.404 298.793 67.516 300.017 66.892C301.265 66.244 302.705 65.92 304.337 65.92Z" fill="#EF4B4C"/>
</svg>
